<?xml version="1.0" encoding="utf-8"?>
<!-- Generator: Adobe Illustrator 16.0.4, SVG Export Plug-In . SVG Version: 6.00 Build 0)  -->
<!DOCTYPE svg PUBLIC "-//W3C//DTD SVG 1.1//EN" "http://www.w3.org/Graphics/SVG/1.1/DTD/svg11.dtd">
<svg version="1.1" id="Layer_1" xmlns:svg="http://www.w3.org/2000/svg"
	 xmlns="http://www.w3.org/2000/svg" xmlns:xlink="http://www.w3.org/1999/xlink" x="0px" y="0px" width="43.2px" height="23.76px"
	 viewBox="0 0 43.2 23.76" enable-background="new 0 0 43.2 23.76" xml:space="preserve">
<g id="Display" xmlns:svg="http://www.w3.org/2000/svg">
	<g id="breadboard_1_">
		<polygon fill="#D94D4D" points="0,2.16 43.202,2.16 42.661,8.281 0,8.281 		"/>
		<polygon fill="#301111" points="0,15.48 42.661,15.48 43.202,21.601 0,21.601 		"/>
		<polygon fill="#4A1A1A" points="43.202,2.16 42.661,3.931 41.655,3.931 41.655,19.822 42.661,19.828 43.202,21.601 		"/>
		<polygon fill="#4A1A1A" points="0,2.16 0.541,3.931 1.547,3.931 1.547,19.822 0.541,19.828 0,21.601 		"/>
	</g>
	<path fill="#702828" d="M0.54,3.931v15.905h42.121V3.931H0.54z"/>
	<g>
		<polygon fill="#EF1818" points="4.186,6.486 8.8,6.486 9.107,6.792 8.492,7.715 4.494,7.715 3.88,6.792 		"/>
		<polygon fill="#EF1818" points="9.415,7.099 9.723,7.715 9.107,11.099 8.492,11.714 7.878,11.099 8.492,8.022 		"/>
		<polygon fill="#4A1A1A" points="8.492,12.022 8.8,12.636 8.185,16.021 7.57,16.635 6.954,16.021 7.57,12.945 		"/>
		<polygon fill="#4A1A1A" points="6.954,17.249 2.341,17.249 2.033,16.941 2.649,16.021 6.648,16.021 7.262,16.943 		"/>
		<polygon fill="#EF1818" points="1.726,16.635 1.419,16.021 2.033,12.636 2.649,12.022 3.263,12.636 2.649,15.712 		"/>
		<polygon fill="#EF1818" points="2.649,11.714 2.341,11.099 2.957,7.715 3.571,7.099 4.186,7.715 3.571,10.791 		"/>
		<polyline fill="#EF1818" points="2.957,11.714 3.571,11.099 7.57,11.099 8.185,11.714 7.57,12.329 3.571,12.329 		"/>
		<circle fill="#4A1A1A" cx="8.976" cy="16.634" r="0.648"/>
		<polygon fill="#EF1818" points="14.86,6.486 19.474,6.486 19.782,6.792 19.166,7.715 15.167,7.715 14.553,6.792 		"/>
		<polygon fill="#EF1818" points="20.089,7.099 20.397,7.715 19.782,11.099 19.166,11.714 18.552,11.099 19.166,8.022 		"/>
		<polygon fill="#EF1818" points="19.166,12.022 19.474,12.636 18.859,16.021 18.243,16.635 17.63,16.021 18.243,12.945 		"/>
		<polygon fill="#EF1818" points="17.63,17.249 13.015,17.249 12.708,16.941 13.323,16.021 17.322,16.021 17.936,16.943 		"/>
		<polygon fill="#EF1818" points="12.4,16.635 12.093,16.021 12.708,12.636 13.323,12.022 13.938,12.636 13.323,15.712 		"/>
		<polygon fill="#EF1818" points="13.323,11.714 13.015,11.099 13.631,7.715 14.245,7.099 14.86,7.715 14.245,10.791 		"/>
		<polyline fill="#4A1A1A" points="13.631,11.714 14.245,11.099 18.243,11.099 18.859,11.714 18.243,12.329 14.245,12.329 		"/>
		<circle fill="#4A1A1A" cx="19.65" cy="16.634" r="0.648"/>
		<polygon fill="#EF1818" points="25.54,6.486 30.153,6.486 30.459,6.792 29.844,7.715 25.846,7.715 25.231,6.792 		"/>
		<polygon fill="#4A1A1A" points="30.768,7.099 31.075,7.715 30.459,11.099 29.844,11.714 29.229,11.099 29.844,8.022 		"/>
		<polygon fill="#EF1818" points="29.844,12.022 30.153,12.636 29.538,16.021 28.922,16.635 28.307,16.021 28.922,12.945 		"/>
		<polygon fill="#EF1818" points="28.307,17.249 23.694,17.249 23.385,16.941 24,16.021 27.999,16.021 28.616,16.943 		"/>
		<polygon fill="#EF1818" points="23.077,16.635 22.77,16.021 23.385,12.636 24,12.022 24.616,12.636 24,15.712 		"/>
		<polygon fill="#EF1818" points="24,11.714 23.694,11.099 24.307,7.715 24.922,7.099 25.54,7.715 24.922,10.791 		"/>
		<polyline fill="#EF1818" points="24.307,11.714 24.922,11.099 28.922,11.099 29.538,11.714 28.922,12.329 24.922,12.329 		"/>
		<circle fill="#4A1A1A" cx="30.329" cy="16.634" r="0.648"/>
		<polygon fill="#EF1818" points="36.247,6.486 40.858,6.486 41.165,6.792 40.551,7.715 36.553,7.715 35.938,6.792 		"/>
		<polygon fill="#EF1818" points="41.473,7.099 41.78,7.715 41.165,11.099 40.551,11.714 39.934,11.099 40.551,8.022 		"/>
		<polygon fill="#EF1818" points="40.551,12.022 40.858,12.636 40.243,16.021 39.629,16.635 39.014,16.021 39.629,12.945 		"/>
		<polygon fill="#EF1818" points="39.014,17.249 34.399,17.249 34.09,16.941 34.708,16.021 38.708,16.021 39.321,16.943 		"/>
		<polygon fill="#EF1818" points="33.784,16.635 33.477,16.021 34.09,12.636 34.708,12.022 35.321,12.636 34.708,15.712 		"/>
		<polygon fill="#EF1818" points="34.708,11.714 34.399,11.099 35.016,7.715 35.629,7.099 36.247,7.715 35.629,10.791 		"/>
		<polyline fill="#4A1A1A" points="35.016,11.714 35.629,11.099 39.629,11.099 40.243,11.714 39.629,12.329 35.629,12.329 		"/>
		<circle fill="#4A1A1A" cx="41.034" cy="16.634" r="0.648"/>
	</g>
</g>
<g>
	<g id="breadboard">
		<g id="connector0terminal">
		</g>
		<g id="connector11terminal">
		</g>
		<g id="connector5terminal">
		</g>
		<g id="connector6terminal">
		</g>
		<g id="connector10terminal">
		</g>
		<g id="connector9terminal">
		</g>
		<g id="connector8terminal">
		</g>
		<g id="connector7terminal">
		</g>
		<g>
			<g>
				<rect id="connector11pin" x="2.52" fill="#8C8C8C" width="2.16" height="3.125"/>
				<polygon fill="#8C8C8C" points="6.12,3.125 6.12,2.347 4.68,1.685 2.52,1.685 2.52,3.125 				"/>
			</g>
			<g>
				<rect id="connector6pin" x="38.52" fill="#8C8C8C" width="2.16" height="3.125"/>
				<polygon fill="#8C8C8C" points="40.68,3.125 40.68,1.685 38.52,1.685 37.081,2.347 37.081,3.125 				"/>
			</g>
			<g>
				<rect id="connector10pin" x="9.72" fill="#8C8C8C" width="2.16" height="3.125"/>
				<polygon fill="#8C8C8C" points="13.32,3.125 13.32,2.347 11.88,1.685 9.72,1.685 8.28,2.347 8.28,3.125 				"/>
			</g>
			<g>
				<rect id="connector9pin" x="16.92" fill="#8C8C8C" width="2.16" height="3.125"/>
				<polygon fill="#8C8C8C" points="20.52,3.125 20.52,2.347 19.08,1.685 16.92,1.685 15.48,2.347 15.48,3.125 				"/>
			</g>
			<g>
				<rect id="connector8pin" x="24.12" fill="#8C8C8C" width="2.16" height="3.125"/>
				<polygon fill="#8C8C8C" points="27.72,3.125 27.72,2.347 26.28,1.685 24.12,1.685 22.68,2.347 22.68,3.125 				"/>
			</g>
			<g>
				<rect id="connector7pin" x="31.32" fill="#8C8C8C" width="2.16" height="3.125"/>
				<polygon fill="#8C8C8C" points="34.92,3.125 34.92,2.347 33.48,1.685 31.32,1.685 29.879,2.347 29.879,3.125 				"/>
			</g>
		</g>
		<g id="connector1terminal">
		</g>
		<g id="connector2terminal">
		</g>
		<g id="connector3terminal">
		</g>
		<g id="connector4terminal">
		</g>
		<g>
			<g>
				<rect id="connector0pin" x="2.52" y="20.635" fill="#8C8C8C" width="2.16" height="3.125"/>
				<polygon fill="#8C8C8C" points="2.52,20.635 2.52,22.075 4.68,22.075 6.12,21.412 6.12,20.635 				"/>
			</g>
			<g>
				<rect id="connector5pin" x="38.52" y="20.635" fill="#8C8C8C" width="2.16" height="3.125"/>
				<polygon fill="#8C8C8C" points="37.081,20.635 37.081,21.412 38.52,22.075 40.68,22.075 40.68,20.635 				"/>
			</g>
			<g>
				<rect id="connector1pin" x="9.72" y="20.635" fill="#8C8C8C" width="2.16" height="3.125"/>
				<polygon fill="#8C8C8C" points="8.28,20.635 8.28,21.412 9.72,22.075 11.88,22.075 13.32,21.412 13.32,20.635 				"/>
			</g>
			<g>
				<rect id="connector2pin" x="16.92" y="20.635" fill="#8C8C8C" width="2.16" height="3.125"/>
				<polygon fill="#8C8C8C" points="15.48,20.635 15.48,21.412 16.92,22.075 19.08,22.075 20.52,21.412 20.52,20.635 				"/>
			</g>
			<g>
				<rect id="connector3pin" x="24.12" y="20.635" fill="#8C8C8C" width="2.16" height="3.125"/>
				<polygon fill="#8C8C8C" points="22.68,20.635 22.68,21.412 24.12,22.075 26.28,22.075 27.72,21.412 27.72,20.635 				"/>
			</g>
			<g>
				<rect id="connector4pin" x="31.32" y="20.635" fill="#8C8C8C" width="2.16" height="3.125"/>
				<polygon fill="#8C8C8C" points="29.879,20.635 29.879,21.412 31.32,22.075 33.48,22.075 34.92,21.412 34.92,20.635 				"/>
			</g>
		</g>
	</g>
</g>
</svg>
